inDegrees=no
num_controls=7
num_derivatives=13
num_iterations=126
num_multipliers=7
num_parameters=0
num_slacks=7
num_states=26
objective=0.478068
objective_accelerations=0.043338
objective_balance=0.003678
objective_effort=0.039747
objective_height=0.385614
objective_ligament=0.005691
solver_duration=1775.239295
status=Solve_Succeeded
success=true
DataType=double
version=3
OpenSimVersion=4.5
endheader
time	/jointset/ground_pelvis/pelvis_tilt/value	/jointset/ground_pelvis/pelvis_tx/value	/jointset/ground_pelvis/pelvis_ty/value	/jointset/hip_l/hip_flexion_l/value	/jointset/hip_l/hip_adduction_l/value	/jointset/hip_l/hip_rotation_l/value	/jointset/back/lumbar_extension/value	/jointset/patellofemoral_l/patellar_flexion_l/value	/jointset/knee_l/knee_flexion_l/value	/jointset/knee_l/knee_adduction_l/value	/jointset/knee_l/knee_rotation_l/value	/jointset/ankle_l/ankle_angle_l/value	/jointset/subtalar_l/subtalar_angle_l/value	/jointset/ground_pelvis/pelvis_tilt/speed	/jointset/ground_pelvis/pelvis_tx/speed	/jointset/ground_pelvis/pelvis_ty/speed	/jointset/hip_l/hip_flexion_l/speed	/jointset/hip_l/hip_adduction_l/speed	/jointset/hip_l/hip_rotation_l/speed	/jointset/back/lumbar_extension/speed	/jointset/patellofemoral_l/patellar_flexion_l/speed	/jointset/knee_l/knee_flexion_l/speed	/jointset/knee_l/knee_adduction_l/speed	/jointset/knee_l/knee_rotation_l/speed	/jointset/ankle_l/ankle_angle_l/speed	/jointset/subtalar_l/subtalar_angle_l/speed	/forceset/tau_hip_flexion_l	/forceset/tau_hip_adduction_l	/forceset/tau_hip_rotation_l	/forceset/tau_knee_flexion_l	/forceset/tau_ankle_angle_l	/forceset/tau_subtalar_angle_l	/forceset/tau_lumbar_extension	lambda_cid13_p0	lambda_cid13_p1	lambda_cid13_p2	lambda_cid13_p3	lambda_cid13_p4	lambda_cid13_p5	lambda_cid14_p0	/jointset/ground_pelvis/pelvis_tilt/accel	/jointset/ground_pelvis/pelvis_tx/accel	/jointset/ground_pelvis/pelvis_ty/accel	/jointset/hip_l/hip_flexion_l/accel	/jointset/hip_l/hip_adduction_l/accel	/jointset/hip_l/hip_rotation_l/accel	/jointset/back/lumbar_extension/accel	/jointset/patellofemoral_l/patellar_flexion_l/accel	/jointset/knee_l/knee_flexion_l/accel	/jointset/knee_l/knee_adduction_l/accel	/jointset/knee_l/knee_rotation_l/accel	/jointset/ankle_l/ankle_angle_l/accel	/jointset/subtalar_l/subtalar_angle_l/accel	gamma_cid13_p0	gamma_cid13_p1	gamma_cid13_p2	gamma_cid13_p3	gamma_cid13_p4	gamma_cid13_p5	gamma_cid14_p0
0	-0.03676894632417693	0.05665398358314033	0.9203425580016398	0.3085816938045678	-0.2956247105822076	-0.301264228969267	-0.3879492264334186	0.2499269421184958	0.2499269421184919	-0.1745324769765484	-0.1741961138030482	-0.0008036623358878681	0.0004495406847424592	0	0	0	0	0	0	0	0	0	0	0	0	0	0.06744709947600977	-0.04303952042786664	-0.01918866100907815	-0.2377507758764862	0.1834289559793237	-0.01509415859830835	0.006541272815123537	15.36257571362117	1.223909189222531	2.367919900921393	11.01022083682302	-623.7414050741436	-72.03488001478254	-23.18549917293041	-0.9621071858453464	-2.006847264385918	-0.9023946412777959	9.064192639870614	-0.825081151540491	3.216030627346159	-7.130092561838027	9.159254999006082	9.159254999009461	1.230918051287218	-0.1053356204165636	1.560219448888157	-0.354904154133601	2.923909587686862e-11	1.411740582226477e-07	5.916895970047462e-08	-9.745100381150664e-09	1.10870582127637e-07	4.005572033505165e-09	3.026168121894972e-09
0.01	-0.03681349834979791	0.05655529959373497	0.9202984423117857	0.3090233828002649	-0.295666100466676	-0.3011027895965908	-0.3883044998973773	0.2503757797094934	0.2503757797095027	-0.1744744716356046	-0.1741980184482	-0.0007273817213200575	0.0004310482437809842	-0.008877734557764454	-0.01958921554368107	-0.008787626220537626	0.08787307335493669	-0.008234799009351351	0.03213833176815434	-0.07058537199511698	0.08935545382094487	0.08935545382096013	0.01154313014555879	-0.0003732730090343572	0.01525827477052988	-0.00365172539514937	0.06344637920651593	-0.05303200666103578	-0.01879257348858413	-0.2361533345462224	0.1798463098236966	-0.003626999446706863	0.01085421666680703	14.54163364025541	-3.51504481122479	3.012079331235545	9.655818445557873	-626.4192250949475	-81.68890371753469	-23.19073842984315	-0.8457139501662272	-1.912823298194067	-0.8615976757954651	8.579149933822597	-0.8162341725636892	3.190301252428008	-6.952361398576462	8.761880311450417	8.761880311450577	1.107349927864075	-0.002169353154633875	1.508957888347494	-0.3633216958968634	-2.903999475926355e-08	1.399238371163034e-07	1.318512883592048e-07	1.816716877763579e-08	-2.092205327075068e-09	-4.213661884098143e-08	-5.417525031567168e-09
0.02	-0.03694584919288559	0.05626515052912539	0.9201675201470556	0.3103298595796118	-0.295788549320623	-0.300624453546056	-0.3893515474573331	0.2517058097862779	0.2517058097862785	-0.1743027671068276	-0.1742034250658201	-0.0004984530796043998	0.0003774355561297496	-0.01755976349247665	-0.03829301504084273	-0.01736129497518659	0.1729575567305671	-0.0162117938959488	0.06337933557142844	-0.1383548191993288	0.1762384971543586	0.1762384971543721	0.02273983755806989	-0.0007003944983806694	0.03052960542954114	-0.007024049337950999	0.05944565893702053	-0.0630244928942205	-0.01839648596820944	-0.2345558932159434	0.1762636636680665	0.007840159704879151	0.01516716051849649	13.79115067419409	-8.26524076683776	3.656780188206437	8.193302796144113	-628.041548521443	-91.25576672712346	-23.20613634473855	-0.9229660612347311	-1.829764055082187	-0.8596031481000683	8.506474644009366	-0.7735203269897291	3.036565034370106	-6.566907603656889	8.66477290149988	8.664772901499843	1.161633504677652	-0.09610531647897834	1.562830626584255	-0.2990238636641324	-5.810922861440397e-08	1.38673616009959e-07	2.045336170179349e-07	4.607943793642225e-08	-1.150549927817872e-07	-8.827880971546803e-08	-1.386121818502931e-08
0.03	-0.03716403189758755	0.0557922633376358	0.9199517116920628	0.3124735878836137	-0.2959893174019783	-0.2998386270163499	-0.3910618697162305	0.2538924972296107	0.2538924972296143	-0.1740206942102145	-0.1742122359657925	-0.0001169030149167474	0.0002916044617324702	-0.02602020947279365	-0.05614939014120333	-0.02578257323907822	0.2553262004503303	-0.02388910290692273	0.09363806545024327	-0.2032321801518443	0.260694289251143	0.260694289251154	0.0336114329144296	-0.001047264568649667	0.04576613960071338	-0.01009220192416327	0.05351562967745814	-0.05722838794954042	-0.01777808764368152	-0.2304656261645062	0.1737387340228926	0.005631481234843883	0.02067165845634193	12.84842682767213	-7.199515136550207	3.553772610841267	7.726795154167211	-629.638719567459	-88.23188374339928	-23.23103786089168	-0.799105154579578	-1.743309941892489	-0.830740215313911	8.032764289887039	-0.756975398483601	2.998316204292496	-6.376532476530028	8.275279830969135	8.275279830968737	1.040469692448112	-0.001768518252004738	1.501925041325827	-0.3032611378696091	-8.062522754875614e-08	1.097989840164657e-07	2.650779358167981e-07	6.488972273601299e-08	-2.061415789423011e-07	-1.323416200245976e-07	-2.351488372651471e-08
0.04	-0.03746512331972617	0.05514486525426628	0.9196522204444754	0.3154271436355953	-0.2962652864155098	-0.2987546553399238	-0.39340664201175	0.2569116020873555	0.2569116020873579	-0.1736317959317652	-0.1742240736996501	0.0004165844372710318	0.0001765818051190886	-0.03414150697906761	-0.07319519341682726	-0.03409785349414206	0.3349230463271792	-0.03125198033119169	0.1230083649152726	-0.2652448265235844	0.3427219800359842	0.3427219800359913	0.04410491392410849	-0.001305761276964345	0.06091708292956864	-0.01286236178116984	0.04758560041789259	-0.05143228300486397	-0.01715968931918434	-0.2263753591130645	0.1712138043777192	0.003422802764805523	0.02617615639418568	11.9711480304245	-6.142528874021188	3.449051872219716	7.151106474424676	-630.2682567889296	-85.12334633195161	-23.26460958572461	-0.8551363664259598	-1.667649690135005	-0.8384035463345155	7.952115075426515	-0.7106340096487288	2.858878951613001	-5.993964687501719	8.17915263911128	8.179152639110928	1.086010635341505	-0.07843064408812854	1.545712458120689	-0.2394253178230498	-1.030061082373189e-07	8.035477654076313e-08	3.25371986371128e-07	8.351233775500178e-08	-2.967771094060274e-07	-1.763615565076373e-07	-3.319349715228924e-08
0.05	-0.03784595971690752	0.05433095502762981	0.9192699150705667	0.3191633838171886	-0.2966131497006195	-0.2973820096162696	-0.3963570481997861	0.2607390454225544	0.2607390454225597	-0.1731396421505382	-0.1742385858537336	0.001101007589211154	3.546392940100163e-05	-0.04196494015642893	-0.08946176335822044	-0.0423593762712996	0.4118756810891476	-0.03825470038727441	0.1513644054687325	-0.3243717655488927	0.4223551096924833	0.4223551096925033	0.0542668123862495	-0.001579955759946971	0.07593286928168924	-0.01530520668405351	0.04078447995608085	-0.04953490588808558	-0.01631444349373467	-0.2214729870138904	0.1656296987886123	0.005642669361530735	0.03217367911244078	10.26450072980533	-6.836728859418003	3.592775284436395	7.115995872018865	-631.0123917197277	-85.65467553248924	-23.30580557094668	-0.7368264064502839	-1.587380510766761	-0.819509978799118	7.499430117841986	-0.6852461505381493	2.800463395579369	-5.802361679576172	7.793663249160871	7.79366324916302	0.972469577142818	0.0006478446749932729	1.47430709444058	-0.2383626729910296	-1.174255552696736e-07	5.983116839834874e-08	3.622274859838904e-07	9.728404352150013e-08	-3.615494536773477e-07	-2.029441917630205e-07	-3.883252301919905e-08
